<?xml version="1.0" encoding="utf-8"?>
<!-- Generator: Adobe Illustrator 24.1.1, SVG Export Plug-In . SVG Version: 6.00 Build 0)  -->
<svg version="1.1" id="Layer_1" xmlns="http://www.w3.org/2000/svg" xmlns:xlink="http://www.w3.org/1999/xlink" x="0px" y="0px"
	 viewBox="0 0 960 400" style="enable-background:new 0 0 960 400;" xml:space="preserve">
<style type="text/css">
	.st0{fill:#747F81;stroke:#747F81;stroke-width:3;}
</style>
<g>
	<path class="st0" d="M496,68.1l28.3,1.2l1.1,48l1.3,4.3l-31.5-0.3v-7.4l0.8-44.6L496,68.1z"/>
	<path class="st0" d="M311.2,96.6l13-4.8l17.8-0.6l2.4,11.4l-3.9,13.1l-7.4,10l-3.1-6.5l-19.7,3.6L311.2,96.6z"/>
	<path class="st0" d="M314.3,20.8l4.6,0.3l1.3,0.1l4.4,0.3l3,0.2l0.6,0.1l2.1,0.2l0.9,0.1l1.7,0.1l4.2,0.4l2.2,0.1l5.9,0.7l2.6,0.1
		l3.3,0.1l4.5,0.3L348,39l0.8,5.7l-1.5,3.5l-4.8-0.2l-5.6-7.9l-6.3,1.6l-2.1-2.5l-8.8,9.4l-10.1-28.1L314.3,20.8z"/>
	<path class="st0" d="M419.3,204.7l2.5-1.9l2.9,7.2l6.4,1.3l5.3-6l4,6.8l0.8,4.1l7.1,3.6l7.4-4.1l5.5,10l-2.5,4.8l3.6,3.4l1.8,9.9
		l-8.2,12.7l-7.9-0.3l-2.6-0.1l-1.6-0.1l-3.2-0.1l-2.7-0.1l-4.2-0.2l-2.7-0.1h-0.2L424,255l-5.1-0.2l-3.9-0.1L419.3,204.7z"/>
	<path class="st0" d="M276.6,17.5l7.8,0.5l8.1,1.2l2.2,0.2l1.1,0.1l1.3-0.1l3.3,0.6h0.1h0.1l9.1,0.6l10.1,28.1l-11.1-1l-1,10.9
		l-4.7-1.5l-6.6,6.9l-9.1-4.6L280.1,49l-9.5-6.1l-0.2-0.2l1.4-3.6l0.3-0.8l2.1-4.6l0.2-0.2l0.1-0.2l0,0l0.1-0.7l-0.3-1.5l0.2-0.9
		l-0.4-3.1l-0.2-0.7l-0.1-0.1l-0.3-0.4l-0.2-0.3l-0.1-0.8l2.3-4.6l0.7-0.1l0.3-0.3v-0.5l-0.2-0.6l-0.1-0.9L276.6,17.5z"/>
	<path class="st0" d="M251.4,55.9l2.5,3.1l-1.6,6.4l8,6.4l1.7,7.6l7.7,6.1L262,99.1l-9.4-5.4l-4.6,5.1l-4,6.1l-6.7-7.2l1.1-5.8
		l-4-13.1l0,0l2.7-2.6l1,0.2l0.6,0.6l0.5,0.1l0.5-0.5L240,76v-0.1l3.7-6.6l3.4-6l2.9-4.7L251.4,55.9z"/>
	<path class="st0" d="M775.2,138.1l21.5-0.5l5.6,10.9l12.8,7.9l-2.2,4.8l-11.6,0.9l6.4,16.3l-7.7,1.7l1.8,5.2l-2.4,13.4l-22.2,3
		l-5.4-4.8L740.3,176l1.1-13.1l5-4.6l4.4,0.1l-9.6-10.6l0.2-6.4l-2.7-1.9l2.1-4.4l19.8,9.3L775.2,138.1z"/>
	<path class="st0" d="M735.4,68.4l51.9-0.6l-2.7,12.7l7.5,16.2l-2.1,9.9l-6.8,10.6l-7.3-2.6l-5,9.8l-5.1-11.4l-11,5.7l-1.2-11.1
		l-5.1,2.5l-9.8-0.7l-2.3-9.9L723.7,91l10-4.2l-6.6-8.1l-0.7-5.2l6.6-0.8L735.4,68.4z"/>
	<path class="st0" d="M563.3,253.7l42.5-2.8l26,39.4l-1.8,2.1l2.2,4.3l8.1,5.1l-8.2,8.6l-8.4,4.3l-11.4-1.2l-23.7-12.1l-16.6,1
		l-4.9-2.7l2.9-3.2l-1.8-7.9l5.3-15.4L563.3,253.7z"/>
	<path class="st0" d="M642.2,315.8l2.6-1.9l11.4,5.1l8.6,12.9l2.6,39.6l-3.2,11.1l-5.3-5.7l-16.9-3.2l-21.8,1.8l-16.5,6.7l-3.9-4
		l-4.2-4.4l-1.7-1.7l-2-2.1l2.7-3.8l-1.8-4.9l8.6-6.8l1.2-11l4.2-2.8l8.6,3.7l4.9-8.6l12.6-1.6L642.2,315.8z"/>
	<path class="st0" d="M199.9,115.1l6.1,1.1l1.3,8.4l6,6.1l-2,2.6l2.9,9.3l-2.8,2.9l12.4,9l-6.6,0.8l-1.1,6.7l-2.4-0.1l-6.8-4.6
		l-3.8,1.8l0.4,3.2l-5.4-2.1l-5.5,3.6l-6.7-0.2l0.5,2.9l-1.9-2.9l-7.6,0.8l-5.1-3.4l-7.6,4.4l-5.5-6.6l3.8-12.6l-4.4-8l-4.2,0.9
		l-3.1-8.2l3.7-2.9l4.3,2.3l11-5.8l3.2,1.3l16.2-9.3L199.9,115.1z"/>
	<path class="st0" d="M262,99.1l25.5,25.3l19.7,2l-17.9,25.5l-0.3,0.6l-15.9-2.7l-6.4-4.5l-7.2,4.6l-4.4-19.2l-11.9-12l7-5l1.4-4.6
		L248,98.8l4.6-5.1L262,99.1z"/>
	<path class="st0" d="M366.8,162.6l4.9,0.1l45.7,1.7l-21.8,41.1l-4.7-3.1l-12.1-8.1l-2.8-10.5l-7.5-7.4L366.8,162.6z"/>
	<path class="st0" d="M261.9,79.5l27.3,0.4l13.8,6.5l8.3,10.2l-0.9,26.2l-3.1,3.6l-19.7-2L262,99.1l7.6-13.5L261.9,79.5z"/>
	<path class="st0" d="M810.9,27.3l15.7-0.3l16.5,15.7l4.9,8.8h8l7,5.9l2.5,3l-1.4,3.5l8.3,12.5L855.7,74l-9.5-11.2l-8.7-3.3l3.6-3.1
		l-3.6-0.6l-1.9-5.8l-2.4,1.3l-6.9-8l-4.5-0.3l-13.5-10.2l-5.3-5l5.2-0.2L810.9,27.3z"/>
	<path class="st0" d="M792.3,231.9l6.8-5.1l1.8,3.2l13.1-2l3.8-9.1l7.6,13l7.3-0.3l-4.3-7.5l8.1,3.6l1.5,8.5l-7,9l-5.4,2.3l-1.4,5.5
		l2.7,1l32.2-36.1l3.7,2.1l-35.4,36.8l-14.7,25.9l-1.7-7.4l-13.6-5.8l-24.2,1.9l-21.6,6.2l0.4-9.6l-6.6-9.3l7.9-2.5l41.4-9.6
		l3.9-8.7L792.3,231.9z"/>
	<path class="st0" d="M536.2,30.5l-1.3,39.1l-10.6-0.3L496,68.1l2.1-38h4.2l0,0h2.4l0,0h1.9l8.7,0.1l8.1,0.1h1.4h3.2h0.9h0.1h1
		L536.2,30.5z"/>
	<path class="st0" d="M333.1,125.8l5.2,9.3l6.6,1l7.5,11.2l-3.8,9.5l-59.3-4.8l17.9-25.5l3.1-3.6l19.7-3.6L333.1,125.8z"/>
	<path class="st0" d="M549.5,119.2l11.4-0.5l-8.9,33.6l8.4,3.5l-5.7,8l-15.6-13.9l-8.2,8.9l-4.3-1.5l-2.6,4.8l-3.3-2.7l-5.4,4.6
		l-21.3,0.1l1.1-42.9l31.5,0.3l-1.3-4.3L549.5,119.2z"/>
	<path class="st0" d="M31.5,174.1l2.4,7.6l3.7,2.7l12.8-4.1l14.6,1.9l-4,12l-12.3,1.6l-16,18.7l-1.6-0.1h-0.9l-10.3-0.8l-1.6-0.1
		l-6.7-0.5L8,212.7L0,212l0.6-4.3l1-7.5l1.6-11.6l0.4-2l0.4-3.2l8.6-7.2l0.6,0.9v0.2l0.2,0.3l0.1,1.1l4.2,0.8l0.2-0.3l0.4-0.1h1.3
		l0.3,0.1h3.9l0.5,0.1l0.6-0.3l1-0.9v-0.2l0.2-0.3h0.1l0.6-0.2l4.1-3.1L31.5,174.1z"/>
	<path class="st0" d="M788.1,61l13.9-7.5l-2.7,14.7l2.4,16.8l16.8,4l-10.3,9.3h-6.9l-3.7-3.9l-5.4,2.3l-7.5-16.2l2.7-12.7L788.1,61z
		"/>
	<path class="st0" d="M60.9,194.2l8.7,0.4l13.1,22.1l3.8,0.6l-6.8-0.3l-7.3-0.4v0.7l-10.7-0.8l-2.7-0.2l-3-0.2l-2-0.1l-3.4-0.2
		L39.7,215l-7.1-0.5l16-18.7L60.9,194.2z"/>
	<path class="st0" d="M289,152.5l3.1,2.6l5.1,16.8l10.2,12.1l0.1,6.7l3.7,2.7l-1,12.7l-4-0.3l-8.5-0.7h-0.4l-0.9-0.1l-0.7-0.1
		l-2.6-0.2H293l-5.1-0.4h-0.3l-0.9-0.1l-2-0.2l-0.8-0.1l-10.5-1l-3.4-0.3h-0.5l-1.8-0.1l-3-0.2l7-23l1.5-29.2L289,152.5z"/>
	<path class="st0" d="M632.1,310.3l6,6.1l4.1-0.6l-9.3,18.5l-12.6,1.6l-4.9,8.6l-8.6-3.7l-4.2,2.8l-1.2,11l-8.6,6.8l1.8,4.9
		l-2.7,3.8l-0.3-0.3l-6.2-6.2l-0.2-0.3l-8.7-8.9l-5.7-5.8l-3.2-3.2l-5.4-5.5l-6.9-7.1l-1.9-2l-6.9-7.1l6.4-7l-0.2-3.8l4.4-2l0.8-5.9
		l9.2-5.2l4.9,2.7l16.6-1l23.7,12.1l11.4,1.2L632.1,310.3z"/>
	<path class="st0" d="M719.7,186.7l3.9,1.5l5.9-6.8l4.2,3.7l6.6-9.1l31.5,20.9l-9.2,13.1l5.7,6.2l-3.1,8.6l15.9,11.1l11.2-4.1
		l6.3,5.9l-3.9,8.7l-41.4,9.6l4.1-4.3l-6.5,0.6l-1.3-31.6l-6.6,2.5l-1.2-3.3l-30.5-18.7l4.9-4l-2.6-5.2l1.8-4L719.7,186.7z"/>
	<path class="st0" d="M542.2,206.9l22.3-4.8l9-4.7l18.5,2.7l-3,6.3l1,10.6l-3.4,4.1l3,12l16.2,17.9l-42.5,2.8l-4.4-9.1l-9.8-6.5
		l-6.1-12.3l-0.8-16.5V206.9z"/>
	<path class="st0" d="M869.8,25.7l2.8-0.1l11.3,41.1l-2.2,0.6l-5.7-10L874.8,43l-5.3-8.4l-12.9-2l1.4,6.9l5.3,3.8l4-1.2l0.3,8.3
		l6.9,10.3l8,26.9l-10.2-11.2L864,63.9l1.4-3.5l-2.5-3l-7-5.9h-8l-4.9-8.8L826.6,27l12.5-0.3l7.2-0.2l9-0.3l13.5-0.4L869.8,25.7z"/>
	<path class="st0" d="M860.4,140.6l1.7-30.5l3.5,0.4l3.6-3.9l-1.1-4.7l9.1-1.7l7.2,5l6.4,14.5l0.8,25.5l-4.5,6.2l-9.9-0.1l-3.7-11.1
		L860.4,140.6z M897.7,116.2l-6.5-11.8l9.7,7l1.8,8.7l-5.6-0.8L897.7,116.2z M891.6,200.6l16-9.7l6.4-0.7l4.3-36.6l-7-28.4l6.2,12.1
		l2.5,16.2l-4.7,41.7l-23.1,7.2L891.6,200.6z M883.9,66.7l27.1,57.7l-12.7-23.6l-8-4.6l-8.5-28.8L883.9,66.7z"/>
	<path class="st0" d="M407.1,102.6l18.7-2.6v-3.9l17.6,2.5l-0.4,11.8l-2,54.3h-12l-2.6-10l-12.7-13.4l-0.1-5.1l-13.1-3.4l-3-11.9
		l10.3-1.4l-2.9-4.6l5.3-1.7L407.1,102.6z"/>
	<path class="st0" d="M376.6,91.6l20.2,1.2l3.5-1.9l6.8,11.8l3.1,10.4l-5.3,1.7l2.9,4.6l-10.3,1.4l3,11.9l-2-4.3l-15.8-9.7l-7.8-1.1
		L376.6,91.6z"/>
	<path class="st0" d="M639.5,207.2l9,1.8l5.9-2.5l13.6,6l5.9-4.1l6.9,4.1l4.5,17.9l5.5,4.5l3.1,6.3l-2.4,26.5l-45.4,0.3l-2.2,1.7
		l-7-3.6l5.1-21.6L639.5,207.2z"/>
	<path class="st0" d="M555.8,70.2l15.3,0.5L570.9,90l5.9,2.3l-0.3,5.1l5.6,2.5l-3.1,8.8l-2.9,3.6l-4.9-1.3l-2.8,7.9l-7.5-0.1
		l-11.4,0.5L555.8,70.2z"/>
	<path class="st0" d="M685.2,81.2l16.4,7.2l1.7,7.6l13,4.1l6.6,12.9l-0.5,11.2l-4.2-1.7l-8.4,4.3l-19.2,16.4l-6.3-6.8l-3.6-12.7
		l-8.1-5L685.2,81.2z"/>
	<path class="st0" d="M401.5,64.7l42.7,1.6l-0.8,32.3l-17.6-2.5v3.9l-18.7,2.6l-6.8-11.8l-3.5,1.9l-1.1-7.9l7.1-4l-1.3-13.4
		L401.5,64.7z"/>
	<path class="st0" d="M622.1,66.8l13.8,1.4l7.3,6l10,0.8l-24.8,50.3L618,110.5l-20.1-11.8l4.9-20l7.7,1.4l4.3-9.2l4.1,0.1
		L622.1,66.8z"/>
	<path class="st0" d="M297.2,171.8L349,176l-2.9,4.2l6.3,1.3l-6.4,2.3l-3.2,9.3l0.9,14.8l-3.9,0.9v-0.1l-0.1-0.1l-3.8-0.4l-3-0.3
		l-1.8-0.2l-4.6-0.4l-2.2-0.2l-4.8-0.4h-0.2l-2.6-0.2l-2-0.2l-0.8-0.1l-2.3-0.2l-1.2-0.1l1-12.7l-3.7-2.7l-0.1-6.7L297.2,171.8z"/>
	<path class="st0" d="M788.4,27.8l3-0.1l8.2-0.2h3.5l5.3,5l4.5,17.1l-10.8,3.7l-14,7.7l-8.4-8.2L762,46.5l-0.8-7.7l4.4-5.2l-1.1-4.4
		v-1.1h11.2l2.7-0.1h3.3l1.2-0.1L788.4,27.8z"/>
	<path class="st0" d="M39.2,152l0.8,0.5l37.6,6L74,169.6l-7.1,2.9l0.3,5.9l-2.5,3.9l-14.6-1.9l-12.8,4.1l-3.7-2.7l-2.4-7.6l0.1-0.1
		l-0.8-7.4l2.4-2l0.8-0.8v-1l-0.1-0.5l-0.1-0.2v-0.1l-0.9-3.3L39.2,152z"/>
	<path class="st0" d="M604.7,30.8h1.4l-4.1,3.6l-1.3,7.9l2,36.4l-4.9,20l-14.2-6.9l-6.8,0.4l-5.9-2.3l0.2-19.3l0.2-39.9h3.2h0.7h2.5
		h6.6h0.7h0.9l5,0.1h7.4h2.4L604.7,30.8z"/>
	<path class="st0" d="M673.9,157l12.6-10.5l9.7,10.9l11.3,6.3l3.2,11.9l-20.2,10.5l-3.2-4.2l-10.8,1.5L673.9,157z"/>
	<path class="st0" d="M444.2,66.3l51.7,3l-0.8,44.6l-52.1-3.6l0.4-11.8L444.2,66.3z"/>
	<path class="st0" d="M653.2,75l9.3-23.5l1.1-16.2l26,3.2l2.2,4.6l7.9,4.2l0.4,5l-3.7,4.4l1.4,3.4l13.3-1.5l6.9,10.1l-0.5,4.8
		l9.7,5.1l6.6,8.1l-10,4.2l-7.5,9.2l-13-4.1l-1.7-7.6l-16.4-7.2l-2.5,2.5l-2.9-3l-14.2,1.8l-3.9-5.8l-5-0.7l-0.5,2.5L653.2,75z"/>
	<path class="st0" d="M560.4,155.8l21.5,8.5l8.6,8l10.3,15.8l-1.1,2.8L592,200l-18.5-2.7l-9,4.7l-22.3,4.8l-13.3-10l4.1-5l21.8-28
		L560.4,155.8z"/>
	<path class="st0" d="M142.9,115.5l1.1,6.8l3.4-0.3l3.2,8.9l3.1,8.2l4.2-0.9l4.4,8l-3.8,12.6l5.5,6.6l-9.3,13.3l-9.2,3L129.8,160
		l-5.9-2.5l0.1-3.4l-4.9-3.5l3.2-4.9l-4.4-12l2.2-3.7l-7.5-3.7l0,0l0.1-2.5l16.1-6.9l0.3-0.2l1.9-1.7h0.5l3.5,0.6l0.3-0.1l0.8,0.4
		l0.8,0.4l0.8,0.4l5-1L142.9,115.5z"/>
	<path class="st0" d="M213.7,161.9l0.3,9.8l-9,13.6l-1,12.4h-0.2l-2.4-0.6v-0.2v-0.1l-0.5-1.7l-0.6-0.6l0,0H200l-0.1,0.1l-0.2,0.2
		l-3,2.5l-0.4,1.3l-0.7,1.6l-1.9-0.3v-0.3l-12.2,3.3l-0.2,0.1l-4.5-21.3l-12.6-16.4l7.6-4.4l5.1,3.4l7.6-0.8l1.9,2.9l-0.5-2.9
		l6.7,0.2l5.5-3.6l5.4,2.1l-0.4-3.2l3.8-1.8L213.7,161.9z"/>
	<path class="st0" d="M748.1,29.4h3.9l12.6-0.1l1.1,4.4l-4.4,5.2l0.8,7.7l17.7,6.3l8.4,8.2l-0.8,6.8l-51.9,0.6l6.7-27.3l7.2-4.2
		L739,29.3l4.1,0.2l2.5-0.1h0.6H748.1z"/>
	<path class="st0" d="M504.6,226.1l21.9-22.1l10.9,5.9l4.7-0.6l0.8,16.5l6.1,12.3l-16.2,15.6l-16.4-0.8l-1.5-15.7L504.6,226.1z"/>
	<path class="st0" d="M796.7,137.7L822,138l13.1,0.5l-2.6,10.7l8.6,1.2l4.1-13.1l15.2,3.2l13.2-0.4l3.7,11.1l-8.5,7.6l-6.3,15.3
		l-4,0.2l-0.8,5.1l-8.2,6l-9.1-2.8l-18.1,0.5l-4.4-4.3l-3.8,1.7l-6.5-2.2l-6.4-16.3l11.6-0.9l2.2-4.8l-12.8-7.9L796.7,137.7z
		 M892.1,202.4l-27.2,16.5l3-7.2l23.7-11.2L892.1,202.4z"/>
	<path class="st0" d="M357.1,90.4l19.5,1.2l-1.7,26l-6.7,23.1l3.5,22.1l-4.9-0.1l-13-1.4l-3.9,3.5l-1.3-7.9l3.8-9.5l-7.5-11.2
		l-6.6-1l-5.2-9.3l7.4-10l3.9-13.1L342,91.2L357.1,90.4z"/>
	<path class="st0" d="M102.6,173.8l-0.7-18.1l3.4,0.6l8.6-7.3l5.1,1.6l4.9,3.5l-0.1,3.4l5.9,2.5l15.9,21.5l-0.9,7.3l-7.3,9.2l2,4.1
		l-8.6,10l4.9,3.7l-2.8,0.8l-1.1,0.3l-6.5,1.8l-6.3-8.3l2.6-3.9l-7.6-9.3l0.2-10.5l-6.9,0.2L102.6,173.8z"/>
	<path class="st0" d="M628.4,125.3l0.6,5.8l6.2,5.5l3.1,2.2l4.1,14.4l6.4,2.3l-8.9,21.9l0.3,8.8l-11.8,3.4l-3.8,5.1l-10.9,3.9
		l-8.5-0.9l-5.3-6.8l1.1-2.8l-10.3-15.8l-8.6-8l24.2-24.3L628.4,125.3z"/>
	<path class="st0" d="M685.4,230.5l13.3-8.4l9-12.2l-1.7-10.3l5.5,1.7L742,220l1.2,3.3l6.6-2.5l1.3,31.6l6.5-0.6l-4.1,4.3l-7.9,2.5
		l-3.3-3.1l1.5-3.5l-9.5-11.5l-6.5-1.5l-3.8,3.5l-14.5-7.3l-18.4-0.1L685.4,230.5z"/>
	<path class="st0" d="M554.8,163.8l-21.8,28l-8.6-5.1l-6.8-10.3l-3.2-6.1l2.4-3.7l-1.5-2.6l5.4-4.6l3.3,2.7l2.6-4.8l4.3,1.5l8.2-8.9
		L554.8,163.8z"/>
	<path class="st0" d="M706.7,204l1,5.9l-9,12.2l-13.3,8.4l-4.5-17.9l-6.9-4.1l2.4-25.1l10.8-1.5l3.2,4.2l20.2-10.5l5.4,9.9l3.7,1.2
		l-4.2,1.4l-1.8,4l2.6,5.2l-4.9,4l-5.5-1.7L706.7,204"/>
	<path class="st0" d="M289.3,151.9l59.3,4.8l1.3,7.9L349,176l-51.8-4.2l-5.1-16.8l-3.1-2.6L289.3,151.9z"/>
	<path class="st0" d="M248,98.8l3.6,10.2l-1.4,4.6l-7,5l11.9,12l4.4,19.2l-2,4.2l-13.5,1.7l-3-3.7l-17.2,2.4l-12.4-9l2.8-2.9
		l-2.9-9.3l2-2.6l8.6-3.8l6.3-11.3l10-4.1l1.5-3.3l3.2,1.3l1.1-4.6L248,98.8z"/>
	<path class="st0" d="M67.4,178.3l35.2-4.5l4.7,13.1l6.9-0.2l-0.2,10.5l7.6,9.3l-2.6,3.9l6.3,8.3l-8.5-0.3h-0.7l-13-0.3L87,217.4
		h-0.5l-3.8-0.6l-13.1-22.1l-8.7-0.4l4-12L67.4,178.3z"/>
	<path class="st0" d="M176.5,81.6l4.1,3.3l-0.2,2.8l-0.5,1l-0.3,0.6v5.1l0.3,0.2l6.7,0.1l0.3-0.1l0,0h0.1l1.9-0.6l0.3-0.1l0.1-0.1
		l1.1-0.2l2.5,3.8l-1.6,5.1l4.7,2l3.8,10.6l-10.8,1.4l-16.2,9.3l-3.2-1.3l-11,5.8l-4.3-2.3l-3.7,2.9l-3.2-8.9l-3.4,0.3l-1.1-6.8
		l0.1-0.2l0.4-1.4l0.3-0.6V113l0.4-0.8l0.7-1.1l0.2-0.1l0.7-0.2l0.6-1.2l0.4-0.3l0.4-0.1l0.3-0.3l0.1-0.4l0.3-2.8l0.8-0.4l0.8-0.4
		l0.2-0.3l-0.6-4.4l-0.5-1v-0.4v-0.3l1.5-3.2l4.7-0.3l3.1,3.8l2.3-2.8l1.3-1l0,0l0.3-3.4l0.1-1.3l0.6-0.6l6.7-4.4l0.8-0.2l0.4-0.3
		l5.5-3L176.5,81.6z"/>
	<path class="st0" d="M723.7,91l12.7,8.5l2.3,9.9l9.8,0.7l5.1-2.5l1.2,11.1l11-5.7l5.1,11.4l5-9.8l7.3,2.6l-8.1,20.9l-14.4,6.4
		l-19.8-9.3l-18.7-10.9l0.5-11.2l-6.6-12.9L723.7,91z"/>
	<path class="st0" d="M366.8,162.6l1.8,13.9l7.5,7.4l2.8,10.5l12.1,8.1l-30.2,26.3l-1.1-1.7l-3.5-5.2l-2.2-3.1l-2.9-4.1l-1.8,1.4
		l-0.6,0.5l-8.7,6l-1.5-2.1l-0.1-0.2l-0.1-0.1v-1.4v-0.3l0.1-1.4V217l0.1-0.2l0.4-1l0.2-0.3l0.4-0.2l0.7-0.2L339,211l0.4-1.4
		l0.5-0.6l0,0l3.9-0.9l-0.9-14.8l3.2-9.3l6.4-2.3l-6.3-1.3l2.9-4.2l0.9-11.4l3.9-3.5L366.8,162.6z"/>
	<path class="st0" d="M227.5,72.9l0.4,0.7l0.3,1.1l0.2,2.2l0.7,1.8l0.4,0.3h1.2l0.5-0.3l0.1-0.1l2.4,0.3l0.6,0.1l4,13.1l-1.1,5.8
		l6.7,7.2l-1.1,4.6l-3.2-1.3l-1.5,3.3l-10,4.1l-1.2-14.3l-5.1-2.9l0.2-8.2l-5.6,0.6l-0.1,2.5l-4.7-7.7l-3.9,1.8l-1.2-7.2l-6.7,1.2
		l0.6-1.1l0.2-0.3l2-1.7l1-0.3l0.2-0.5l0.3-0.4l0.4-0.1l6.6-2.6l0.5-0.3l0.5-0.3l0.9,0l0,0h0.1l0.8,0.9l0,0h0.1l0.5-0.1l0.3,0.3
		l0.2,0.1l0.3-0.1l0.2-0.3h1.6l0.3-0.2l1-1.1l0.7-0.6l0.7-1.3l6.7,1.5L227.5,72.9L227.5,72.9z"/>
	<path class="st0" d="M441.1,164.6l30.8-0.2l6.1,31l10.3,14.8l-24.7-2.9l-17.7,5.7l-5.6-0.9l2.3-4.6l-4.7-10.5l4.9-14.8l-4.4-4.1
		l-1.7-7.8l-7.6-5.8L441.1,164.6z"/>
	<path class="st0" d="M515.4,164.1l1.5,2.6l-2.4,3.7l3.2,6.1l6.8,10.3l8.6,5.1l-4.1,5l13.3,10l-0.1,2.4l-4.7,0.6l-10.9-5.9
		l-21.9,22.1L493,223l-0.4-7.2l-4.2-5.6L478,195.3l-6.1-31l22.1-0.2H515.4z"/>
	<path class="st0" d="M685.2,81.2l-12.7,37.4l-1.6,3.9l-5.5-0.8l-30.2,15l-6.2-5.5l-0.6-5.8L653.2,75l3,3.6l0.5-2.5l5,0.7l3.9,5.8
		l14.2-1.8l2.9,3L685.2,81.2z"/>
	<path class="st0" d="M656.2,319l3.8-0.7l3.3-6l2.8,3.2l11.7-4.2l2.8,6.1l8.8,6.3L678,340.8l-10.5,30.6l-2.6-39.6L656.2,319z"/>
	<path class="st0" d="M678.8,30.1l16.4-0.1h1.1l23-0.2l6.2-0.1h3.4l6-0.1l4.2-0.3l10.3,7.6l-7.2,4.2l-6.7,27.3l-2.4,4.2l-6.6,0.8
		l0.7,5.2l-9.7-5.1l0.5-4.8l-7-10.1l-13.3,1.5l-1.4-3.4l3.7-4.4l-0.4-5l-7.9-4.2l-2.2-4.6l-26-3.2l-0.3-4.9h1.8h0.7l10-0.1h1.1h0.1
		L678.8,30.1z"/>
	<path class="st0" d="M745.4,258.6l6.6,9.3l-0.4,9.6l-41.8,26.7l-6.3-4.6L691.6,268l2.4-26.5l-3.1-6.3l18.4,0.1l14.5,7.3l3.8-3.5
		l6.5,1.5l9.5,11.5l-1.5,3.5L745.4,258.6z"/>
	<path class="st0" d="M534.9,69.6l20.9,0.6l-6.2,49l-24.1-1.9l-1.1-48L534.9,69.6z"/>
	<path class="st0" d="M801.8,185.3l12.9,2.8l1.8,6.8l-7.6,18.2l-9.4,9.6l-0.4,4.1l-6.8,5.1l-11.2,4.1l-15.9-11.1l3.1-8.6l-5.7-6.2
		l9.2-13.1l5.4,4.8l22.2-3L801.8,185.3z"/>
	<path class="st0" d="M808.4,32.6l13.5,10.2l4.5,0.3l6.9,8l2.4-1.3l1.9,5.8l3.6,0.6l-3.6,3.1l8.7,3.3l9.5,11.2l-2.3,5.6L841.3,83
		l-10.8-13.6l-9-4.4l-8.6-15.3L808.4,32.6z"/>
	<path class="st0" d="M691.6,267.8l11.9,31.6l6.3,4.6l-20.3,19.6l-8.8-6.3l-2.8-6.1l-11.7,4.2l-2.8-3.2l-3.3,6l-3.8,0.7l-11.4-5.1
		l-2.6,1.9l-4.1,0.6l-6-6.1l8.2-8.6l-8.1-5.1l-2.2-4.3l1.8-2.1l14.3-22.1L691.6,267.8z"/>
	<path class="st0" d="M812.9,49.8l8.6,15.3l9,4.4L841.3,83l-2.6,2.8l-7.4-1L818.5,89l-16.8-4l-2.4-16.8l2.7-14.7L812.9,49.8z"/>
	<path class="st0" d="M553.3,30.6L553.3,30.6h3l0,0h2.7h0.1h1.4l10.8,0.1l-0.2,39.9l-15.3-0.5l-20.9-0.6l1.3-39.1h1.4L553.3,30.6z"
		/>
	<path class="st0" d="M740.9,135.2l-2.1,4.4l2.7,1.9l-0.2,6.4l9.6,10.6l-4.4-0.1l-5,4.6l-1.1,13.1l-6.6,9.1l-4.2-3.7l-5.9,6.8
		l-3.9-1.5l-3.7-1.2l-5.4-9.9l-3.2-11.9l-11.3-6.3l-9.7-10.9l4-3.3l19.2-16.4l8.4-4.3l4.2,1.7L740.9,135.2z"/>
	<path class="st0" d="M213.9,197.4l-3.2-0.1l-0.7,0.4l-2,0.4h-0.1l-0.2,0.4l-0.6,0.4l-0.4-0.1l-2.4-1.1l-0.4,0.1l1-12.4l9-13.6
		l10.5-1.6l3.8,2.3l16.4,19.7l-0.9,8l-3.3-0.3l-9.1-0.7l-5.1-0.6l-3-0.2l-1-0.1l-1.9-0.2l-2.1-0.2l-1.5-0.2l0,0l-1.2-0.2
		L213.9,197.4z"/>
	<path class="st0" d="M495.2,113.9v7.4l-1.1,42.9l-22.1,0.2l-30.8,0.2l2-54.3L495.2,113.9z"/>
	<path class="st0" d="M488.3,210.1l4.2,5.6l0.4,7.2l11.7,3.1l-11.7,6.4l-1.3,6.3l2.5,4.6l-6.7,7.5l1.4,4.9l-7.7,1.2H481h-0.2
		l-5.6-0.2h-0.1l-2.9-0.1l-10.2-0.1l-6-0.2l8.2-12.7l-1.8-9.9l-3.6-3.4l2.5-4.8l-5.5-10l-7.4,4.1l-7.1-3.6l-0.8-4.1l5.6,0.9
		l17.7-5.7L488.3,210.1z"/>
	<path class="st0" d="M563.3,253.7l10.3,19.5l-5.3,15.4l1.8,7.9l-2.9,3.2l-9.2,5.2l-0.8,5.9l-4.4,2l0.2,3.8l-6.4,7l-7.7-8l-6-6.2
		l-0.9-1l-3.3-3.4l-1.2-1.3L525,301l-3.6-3.9l-0.1-0.1l-1.7-1.8l-3.7-4l-9.7-10L505,280l0,0l13.4-18.5l-1.8-8.6l16.4,0.8l16.2-15.6
		l9.8,6.5L563.3,253.7z"/>
	<path class="st0" d="M451.2,29.1L451.2,29.1l6.4,0.1h1.8l11.1,0.3l2.1,0.1l4.5,0.1l4.9,0.1l0,0l4.5,0.1h1.7l2.4,0.1l6.6,0.2h0.8
		l-2.1,38v1.1l-51.7-3l0.9-37.3l3.6,0.1L451.2,29.1z"/>
	<path class="st0" d="M400.5,132.6l13.1,3.4l0.1,5.1l12.7,13.4l2.6,10l-11.7-0.1l-45.7-1.7l-3.5-22.1l6.7-23.1l7.8,1.1l15.8,9.7
		L400.5,132.6z"/>
	<path class="st0" d="M273.1,149.8l-1.5,29.2l-7,23l-3.5-0.3l-4.9-0.4l0,0l-2.6-0.2l-5.3-0.4l-4.5-0.4l0.9-8l-16.4-19.7l-3.8-2.3
		l-10.5,1.6l-0.3-9.8l2.4,0.1l1.1-6.7l6.6-0.8l17.2-2.4l3,3.7l13.5-1.7l2-4.2l7.2-4.6L273.1,149.8z"/>
	<path class="st0" d="M624.6,194.7l6.2,7.8l8.8,4.8l2.6,37.4l-5.1,21.6l7,3.6l2.2-1.7L632,290.3l-26-39.4L589.6,233l-3-12l3.4-4.1
		l-1-10.6l3-6.3l7.7-9.1l5.3,6.8l8.5,0.9L624.6,194.7z"/>
	<path class="st0" d="M516.5,252.9l1.8,8.6L504.9,280l-0.7-0.6l-2.3-2.4l-3.1-3.1l-4.5-4.6l-4.3-4.4l-3-3.1l-0.3-0.3l-4.3-4.5h-1.3
		l7.7-1.2l-1.4-4.9l6.7-7.5l-2.5-4.6l1.3-6.3l11.7-6.4l10.4,11.2L516.5,252.9z"/>
	<path class="st0" d="M429.1,164.5l7.6,5.8l1.7,7.8l4.4,4.1l-4.9,14.8l4.7,10.5l-2.3,4.6l-4-6.8l-5.3,6l-6.4-1.3l-2.9-7.2l-2.5,1.9
		l-16.9,4.2l-6.8-3.3l21.8-41.1H429.1z"/>
	<path class="st0" d="M402.9,26.9l0.9,0.1l6.8,0.6l2.2,0.2l5,0.4l6.9,0.2h0.3l3.9,0.1l1.6,0.1l5.1,0.2l2.3,0.1l4.8,0.1l2.7,0.1
		l-0.9,37.3l-42.7-1.6L402.9,26.9z"/>
	<path class="st0" d="M373.2,24.5l3.1,0.1l4.8,0.5l2.9,0.2l1.3,0.1l3,0.2l2.3,0.2l12.4,1l-1.4,37.8l-0.1,2.7l-1.8-2.6l-6.6,0.1
		l-1.1-3.4l-4.9,1.8l-3.5-2.4l-3,4.6l-8.3-4l-13.9,5.3l0.6-11.8l-10-10.2l-1-5.7l7.8-15l5.5,0.5l1,0.1l0,0h0.1l3.4-0.1l3.1,0.2h0.1
		h1.1L373.2,24.5z"/>
	<path class="st0" d="M112.6,126.2l7.5,3.7l-2.2,3.7l4.4,12l-3.2,4.9l-5.1-1.6l-8.6,7.3l-3.4-0.6l0.7,18.1l-35.2,4.5l-0.3-5.9
		l7.1-2.9l3.6-11.1l-37.6-6l2.9-1.5l0.5,0.1l6.4-6l0.5,0.1l8.6-4.8l11.2-0.2l11.4,1.4l1.2-0.1l6.8-2.1l0.3-0.2l0,0l3.3-3.1l0.9,0.3
		l1.1-0.1l1-0.7L97,135l4.1-2.2l0.9-1l0,0l5.8-0.8l0.5-0.2L112.6,126.2L112.6,126.2z"/>
	<path class="st0" d="M164.1,165.3l12.6,16.4l4.5,21.3l-0.6,0.3l-6.2,1.5l-0.4-0.2l-1,0.5l-0.2,0.4l-2.4-0.6l-0.4-0.1l-1.1,1.6
		l0.1,0.2l0,0l0.2,0.7l-0.1,0.3l-0.6,0.7l-0.4,0.1l-6.9,3.5l-0.6,0.3l-0.8,0.1l-0.5-0.4l0.3-0.9l0.2-0.4l-0.4-1l-0.2-0.1l-0.5,0.1
		l-11.4,3.2l-10.7,2.8l-0.9,0.3l-4.9-3.7l8.6-10l-2-4.1l7.3-9.2l0.9-7.3l9.2-3L164.1,165.3z"/>
	<path class="st0" d="M824,105.8l15.5-6.1l15.7-1.1l5.1,4.1l1.9,7.3l-1.7,30.5l-15.2-3.2l-4.1,13.1l-8.6-1.2l2.6-10.7L822,138
		l-1.3-11.8l4.9-9.6l-3-6.9L824,105.8z"/>
	<path class="st0" d="M395.6,205.6l6.8,3.3l16.9-4.2l-4.4,50l-8.3-0.3l-3.7-0.2l-1.5-0.1h-0.3l-3.6-0.1h-0.6l-0.8-0.1l-6.5-0.2
		l-6.2-0.2l-2.6-0.1l-3.7-0.1h-1h-0.3h-0.5l-7.7-0.3l-2.7-0.1l0.2-1.7v-0.5l0.2-2.3l1.2-10.7l-2.5-3.6l-1.6-2.2l-1.9-2.9l30.2-26.3
		L395.6,205.6z"/>
	<path class="st0" d="M619.8,30.6l5.2,31l-2.9,5.2l-3.1,4.1l-4.1-0.1l-4.3,9.2l-7.7-1.4l-2-36.4l1.3-7.9l4.1-3.6h2.1L619.8,30.6z"/>
	<path class="st0" d="M597.8,98.7l20.1,11.8l10.5,14.8L606.2,140L582,164.3l-21.5-8.5l-8.4-3.5l8.9-33.6l7.5,0.1l2.8-7.9l4.9,1.3
		l2.9-3.6l3.1-8.8l-5.6-2.5l0.3-5.1l6.8-0.4L597.8,98.7z"/>
	<path class="st0" d="M627.7,30.5L627.7,30.5h11.6l0,0h2l6.3-0.1h0.7h0.7l14.4-0.1l0.3,4.9l-1.1,16.2L653.2,75l-10-0.8l-7.3-6
		l-13.8-1.4l2.9-5.2l-5.2-31h2L627.7,30.5z"/>
	<path class="st0" d="M790,106.6l17-0.3l13.3-5.6l3.6,5.1l-1.4,3.9l3,6.9l-4.9,9.6L822,138l-25.3-0.4l-21.5,0.5l8.1-20.9L790,106.6z
		"/>
	<path class="st0" d="M270.6,42.9l9.5,6.1l7.2,10.4l9.1,4.6l1.2,6.6l-8.3,9.2L262,79.4l-1.7-7.6l-8-6.4l1.6-6.4l-2.5-3.1l1.1-1.9
		l3-1.4l0.3-0.3l0.2-0.4l1.2-1.4l0,0l0.6-0.6l0.7-0.3l0.5-0.4l0.5-0.4l0.8-0.5l1.1-0.1l2.2-1.1h0.2h0.4l0.4,0.7v0.1V48l0.3,0.4
		l3.3,1.7h0.7h0.3l0.5-0.2l3.4,0.3l0.1-0.4L270.6,42.9L270.6,42.9z"/>
	<path class="st0" d="M648.8,155.5l25.1,1.5l2.5,26.4l-2.4,25.1l-5.9,4.1l-13.6-6l-5.9,2.5l-9-1.8l-8.8-4.8l-6.2-7.8l3.8-5.1
		l11.8-3.4l-0.3-8.8L648.8,155.5z"/>
	<path class="st0" d="M348.8,44.7l10,10.2l-0.6,11.8l-1.1,23.7L342,91.2l-17.8,0.6l-13,4.8l-8.3-10.2l-13.8-6.5l8.3-9.2l-1.2-6.6
		l6.6-6.9l4.7,1.5l1-10.9l11.1,1l8.8-9.4l2.1,2.5l6.3-1.6l5.6,7.9l4.8,0.2L348.8,44.7z"/>
	<path class="st0" d="M672.5,118.6l8.1,5l3.6,12.7l6.3,6.8l-4,3.3L673.9,157l-25.1-1.5l-6.4-2.3l-4.1-14.4l-3.1-2.2l30.2-15l5.5,0.8
		L672.5,118.6z"/>
	<path class="st0" d="M401.4,67.4l1.3,13.4l-7.1,4l1.1,7.9l-20.2-1.2L357,90.3l1.1-23.7l13.9-5.3l8.3,4l3-4.6l3.5,2.4l4.9-1.8
		l1.1,3.4l6.6-0.1L401.4,67.4z"/>
	<path class="st0" d="M199.8,81.6l6.7-1.2l1.2,7.2l3.9-1.8l4.7,7.7l0.1-2.5l5.6-0.6l-0.2,8.2l5.1,2.9l1.2,14.3l-6.3,11.3l-8.6,3.8
		l-6-6.1l-1.3-8.4l-6.1-1.1l-3.8-10.6l-4.7-2l1.6-5.1l-2.5-3.8L191,93l0.9-0.8l0.4-0.4l0.3-0.1l2.1-1.7l0.4-0.2l0.2-0.3l2.5-4.4
		L199.8,81.6L199.8,81.6z"/>
</g>
</svg>
