<?xml version="1.0" encoding="utf-8"?>
<!-- Generator: Adobe Illustrator 24.1.1, SVG Export Plug-In . SVG Version: 6.00 Build 0)  -->
<svg version="1.1" id="Layer_1" xmlns="http://www.w3.org/2000/svg" xmlns:xlink="http://www.w3.org/1999/xlink" x="0px" y="0px"
	 viewBox="0 0 215.6 264.7" style="enable-background:new 0 0 215.6 264.7;" xml:space="preserve">
<style type="text/css">
	.st0{fill:#006837;}
	.st1{fill:#29332B;}
	.st2{fill:#FFFFFF;}
	.st3{fill:#1F2621;}
	.st4{fill:none;}
	.st5{stroke:#1F2621;stroke-width:0.5;stroke-miterlimit:10;}
</style>
<g>
	<g>
		<path class="st0" d="M45,13.5c1.6,28.3,3.2,56.6,4.8,85c3.1,54.9,6.1,110.4-3,164.7c53.5-18.8,110.8-26.5,167.4-22.4
			c-5.9-79.6-11.9-159.2-17.8-238.9c-10.1,2.4-20.2,4.8-30.4,7.2c-41.7,9.8-87,19.3-125.8,1.4"/>
		<g>
			<path d="M43.5,13.5c1.8,32.9,3.7,65.8,5.5,98.8c1.8,32.2,3.2,64.4,1.7,96.6c-0.8,18-2.5,36.1-5.5,53.9c-0.2,1,0.7,2.3,1.8,1.8
				c20.8-7.3,42.2-12.9,63.9-16.8c21.7-3.9,43.8-6.1,65.9-6.5c12.4-0.2,24.8,0.1,37.2,1c0.8,0.1,1.6-0.7,1.5-1.5
				c-2.3-31.1-4.6-62.1-6.9-93.2c-2.3-31.1-4.6-62.1-6.9-93.2c-1.3-17.5-2.6-35-3.9-52.6c-0.1-1-0.9-1.7-1.9-1.4
				c-20.9,4.9-41.7,10.3-62.8,14.2c-19.7,3.6-40,5.8-60.1,3.4c-11.1-1.3-22-4.2-32.1-8.8c-1.7-0.8-3.3,1.8-1.5,2.6
				c18.5,8.4,38.8,11,58.9,10c20.6-0.9,41-5.1,61-9.7c12.4-2.9,24.9-5.9,37.3-8.8c-0.6-0.5-1.3-1-1.9-1.4
				c2.3,31.1,4.6,62.1,6.9,93.2c2.3,31.1,4.6,62.1,6.9,93.2c1.3,17.5,2.6,35,3.9,52.6c0.5-0.5,1-1,1.5-1.5
				c-22.2-1.6-44.4-1.4-66.6,0.6c-22,2-43.9,5.7-65.3,11.1c-12.1,3.1-24.1,6.7-35.9,10.8c0.6,0.6,1.2,1.2,1.8,1.8
				c5.4-31.9,6.6-64.3,6-96.6c-0.6-32.6-2.8-65.2-4.6-97.7c-1-18.6-2.1-37.2-3.1-55.8C46.4,11.5,43.4,11.5,43.5,13.5L43.5,13.5z"/>
		</g>
	</g>
	<g>
		<g>
			<g>
				<path class="st1" d="M50,30.4c-10.8-1.6-21.9,0.1-31.7,4.8c-4.4,2.1-9.6,4.9-12.1,9.3c-2.8,4.9-0.4,10.1,3.1,13.9
					c6.7,7.4,16.4,11.9,26.3,12.8c2.4,0.2,4.9,0.2,7.4-0.1c2.5-0.3,5.2-0.7,7.3-2.1c4.4-2.8,5.4-8.5,6.5-13.2
					c1.5-6,2.6-12.7,0.2-18.7c-1.9-4.7-5.7-8.9-10.9-9.7c-1.9-0.3-2.7,2.6-0.8,2.9c4,0.6,7,3.6,8.6,7.2c2.1,4.4,1.7,9.6,0.8,14.3
					c-0.5,2.5-1.1,5.1-1.8,7.5c-0.6,2-1.2,4.1-2.5,5.8c-2.8,3.4-8.3,3.4-12.3,3.3C29.2,68.2,20.5,64.8,14,59
					c-3-2.7-7.1-6.9-5.9-11.4c1.2-4.3,6.1-6.9,9.7-8.8c9.5-5.1,20.7-7,31.3-5.5C51.1,33.6,51.9,30.7,50,30.4L50,30.4z"/>
			</g>
		</g>
		<g>
			<g>
				<path class="st1" d="M50,61.1c-10.8-1.6-21.9,0.1-31.7,4.8c-4.4,2.1-9.6,4.9-12.1,9.3c-2.8,4.9-0.4,10.1,3.1,13.9
					c6.7,7.4,16.4,11.9,26.3,12.8c2.4,0.2,4.9,0.2,7.4-0.1c2.5-0.3,5.2-0.7,7.3-2.1c4.4-2.8,5.4-8.5,6.5-13.2
					c1.5-6,2.6-12.7,0.2-18.7c-2-4.6-5.8-8.8-11-9.6c-1.9-0.3-2.7,2.6-0.8,2.9c4,0.6,7,3.6,8.6,7.2c2.1,4.4,1.7,9.6,0.8,14.3
					c-0.5,2.5-1.1,5.1-1.8,7.5c-0.6,2-1.2,4.1-2.5,5.8c-2.8,3.4-8.3,3.4-12.3,3.3c-8.7-0.2-17.4-3.6-23.8-9.4
					c-3-2.7-7.1-6.9-5.9-11.4c1.2-4.3,6.1-6.9,9.7-8.8c9.5-5.1,20.7-7,31.3-5.5C51.1,64.3,51.9,61.4,50,61.1L50,61.1z"/>
			</g>
		</g>
		<g>
			<g>
				<path class="st1" d="M45,93.1c-10.8-1.6-21.9,0.1-31.7,4.8c-4.4,2.1-9.6,4.9-12.1,9.3c-2.8,4.9-0.4,10.1,3.1,13.9
					c6.7,7.4,16.4,11.9,26.3,12.8c2.4,0.2,4.9,0.2,7.4-0.1s5.2-0.7,7.3-2.1c4.4-2.8,5.4-8.5,6.5-13.2c1.5-6,2.6-12.7,0.2-18.7
					c-2-4.6-5.8-8.8-11-9.6c-1.9-0.3-2.7,2.6-0.8,2.9c4,0.6,7,3.6,8.6,7.2c2.1,4.4,1.7,9.6,0.8,14.3c-0.5,2.5-1.1,5.1-1.8,7.5
					c-0.6,2-1.2,4.1-2.5,5.8c-2.8,3.4-8.3,3.4-12.3,3.3c-8.7-0.2-17.4-3.6-23.8-9.4c-3-2.7-7.1-6.9-5.9-11.4
					c1.2-4.3,6.1-6.9,9.7-8.8c9.5-5.1,20.7-7,31.3-5.5C46.1,96.3,46.9,93.4,45,93.1L45,93.1z"/>
			</g>
		</g>
		<g>
			<g>
				<path class="st1" d="M45,120.1c-10.8-1.6-21.9,0.1-31.7,4.8c-4.4,2.1-9.6,4.9-12.1,9.3c-2.8,4.9-0.4,10.1,3.1,13.9
					c6.7,7.4,16.4,11.9,26.3,12.8c2.4,0.2,4.9,0.2,7.4-0.1s5.2-0.7,7.3-2.1c4.4-2.8,5.4-8.5,6.5-13.2c1.5-6,2.6-12.7,0.2-18.7
					c-1.9-4.7-5.7-8.9-10.9-9.7c-1.9-0.3-2.7,2.6-0.8,2.9c4,0.6,7,3.6,8.6,7.2c2.1,4.4,1.7,9.6,0.8,14.3c-0.5,2.5-1.1,5.1-1.8,7.5
					c-0.6,2-1.2,4.1-2.5,5.8c-2.8,3.4-8.3,3.4-12.3,3.3c-8.7-0.2-17.4-3.6-23.8-9.4c-3-2.7-7.1-6.9-5.9-11.4
					c1.2-4.3,6.1-6.9,9.7-8.8c9.5-5.1,20.7-7,31.3-5.5C46.1,123.3,46.9,120.4,45,120.1L45,120.1z"/>
			</g>
		</g>
		<g>
			<g>
				<path class="st1" d="M50,140.1c-10.8-1.6-21.9,0.1-31.7,4.8c-4.4,2.1-9.6,4.9-12.1,9.3c-2.8,4.9-0.4,10.1,3.1,13.9
					c6.7,7.4,16.4,11.9,26.3,12.8c2.4,0.2,4.9,0.2,7.4-0.1s5.2-0.7,7.3-2.1c4.4-2.8,5.4-8.5,6.5-13.2c1.5-6,2.6-12.7,0.2-18.7
					c-1.9-4.7-5.7-8.9-10.9-9.7c-1.9-0.3-2.7,2.6-0.8,2.9c4,0.6,7,3.6,8.6,7.2c2.1,4.4,1.7,9.6,0.8,14.3c-0.5,2.5-1.1,5.1-1.8,7.5
					c-0.6,2-1.2,4.1-2.5,5.8c-2.8,3.4-8.3,3.4-12.3,3.3c-8.7-0.2-17.4-3.6-23.8-9.4c-3-2.7-7.1-6.9-5.9-11.4
					c1.2-4.3,6.1-6.9,9.7-8.8c9.5-5.1,20.7-7,31.3-5.5C51.1,143.3,51.9,140.4,50,140.1L50,140.1z"/>
			</g>
		</g>
		<g>
			<g>
				<path class="st1" d="M50,166.1c-10.8-1.6-21.9,0.1-31.7,4.8c-4.4,2.1-9.6,4.9-12.1,9.3c-2.8,4.9-0.4,10.1,3.1,13.9
					c6.7,7.4,16.4,11.9,26.3,12.8c2.4,0.2,4.9,0.2,7.4-0.1s5.2-0.7,7.3-2.1c4.4-2.8,5.4-8.5,6.5-13.2c1.5-6,2.6-12.7,0.2-18.7
					c-1.9-4.7-5.7-8.9-10.9-9.7c-1.9-0.3-2.7,2.6-0.8,2.9c4,0.6,7,3.6,8.6,7.2c2.1,4.4,1.7,9.6,0.8,14.3c-0.5,2.5-1.1,5.1-1.8,7.5
					c-0.6,2-1.2,4.1-2.5,5.8c-2.8,3.4-8.3,3.4-12.3,3.3c-8.7-0.2-17.4-3.6-23.8-9.4c-3-2.7-7.1-6.9-5.9-11.4
					c1.2-4.3,6.1-6.9,9.7-8.8c9.5-5.1,20.7-7,31.3-5.5C51.1,169.3,51.9,166.4,50,166.1L50,166.1z"/>
			</g>
		</g>
		<g>
			<g>
				<path class="st1" d="M50,187.1c-10.8-1.6-21.9,0.1-31.7,4.8c-4.4,2.1-9.6,4.9-12.1,9.3c-2.8,4.9-0.4,10.1,3.1,13.9
					c6.7,7.4,16.4,11.9,26.3,12.8c2.4,0.2,4.9,0.2,7.4-0.1s5.2-0.7,7.3-2.1c4.4-2.8,5.4-8.5,6.5-13.2c1.5-6,2.6-12.7,0.2-18.7
					c-1.9-4.7-5.7-8.9-10.9-9.7c-1.9-0.3-2.7,2.6-0.8,2.9c4,0.6,7,3.6,8.6,7.2c2.1,4.4,1.7,9.6,0.8,14.3c-0.5,2.5-1.1,5.1-1.8,7.5
					c-0.6,2-1.2,4.1-2.5,5.8c-2.8,3.4-8.3,3.4-12.3,3.3c-8.7-0.2-17.4-3.6-23.8-9.4c-3-2.7-7.1-6.9-5.9-11.4
					c1.2-4.3,6.1-6.9,9.7-8.8c9.5-5.1,20.7-7,31.3-5.5C51.1,190.3,51.9,187.4,50,187.1L50,187.1z"/>
			</g>
		</g>
		<g>
			<g>
				<path class="st1" d="M50,212.1c-10.8-1.6-21.9,0.1-31.7,4.8c-4.4,2.1-9.6,4.9-12.1,9.3c-2.8,4.9-0.4,10.1,3.1,13.9
					c6.7,7.4,16.4,11.9,26.3,12.8c2.4,0.2,4.9,0.2,7.4-0.1s5.2-0.7,7.3-2.1c4.4-2.8,5.4-8.5,6.5-13.2c1.5-6,2.6-12.7,0.2-18.7
					c-1.9-4.7-5.7-8.9-10.9-9.7c-1.9-0.3-2.7,2.6-0.8,2.9c4,0.6,7,3.6,8.6,7.2c2.1,4.4,1.7,9.6,0.8,14.3c-0.5,2.5-1.1,5.1-1.8,7.5
					c-0.6,2-1.2,4.1-2.5,5.8c-2.8,3.4-8.3,3.4-12.3,3.3c-8.7-0.2-17.4-3.6-23.8-9.4c-3-2.7-7.1-6.9-5.9-11.4
					c1.2-4.3,6.1-6.9,9.7-8.8c9.5-5.1,20.7-7,31.3-5.5C51.1,215.3,51.9,212.4,50,212.1L50,212.1z"/>
			</g>
		</g>
	</g>
	<g>
		<path class="st2" d="M66,24.4c1.3,25.2,2.7,50.3,4,75.5c2.6,48.8,5.2,98.1-2.5,146.3c45-16.7,93.4-23.5,141-19.9
			c-5-70.7-10-141.5-15-212.2c-8.5,2.1-17.1,4.2-25.6,6.4c-35,8.7-73.2,17.2-105.9,1.3"/>
		<g>
			<path class="st3" d="M65.2,24.4c1.5,29.1,3.1,58.1,4.6,87.2c1.5,28.7,2.7,57.4,1.5,86.1c-0.7,16.2-2.1,32.3-4.6,48.3
				c-0.1,0.5,0.3,1.1,0.9,0.9c17.5-6.5,35.5-11.5,53.9-15c18.3-3.5,36.8-5.4,55.5-5.8c10.5-0.2,21,0.1,31.5,0.9
				c0.4,0,0.8-0.4,0.8-0.8c-1.9-27.6-3.9-55.1-5.8-82.7c-2-27.7-3.9-55.3-5.9-83c-1.1-15.5-2.2-31.1-3.3-46.6c0-0.5-0.5-0.8-0.9-0.7
				c-17.5,4.4-35,9.1-52.7,12.6C124,29,106.8,31,89.9,28.9c-9.5-1.2-18.8-3.8-27.4-7.9c-0.9-0.4-1.6,0.9-0.8,1.3
				c15.3,7.4,32.3,9.6,49.2,8.9c17.4-0.8,34.5-4.5,51.3-8.6c10.5-2.6,21-5.2,31.5-7.8c-0.3-0.2-0.6-0.5-0.9-0.7
				c1.9,27.6,3.9,55.1,5.8,82.7c2,27.7,3.9,55.3,5.9,83c1.1,15.5,2.2,31.1,3.3,46.6c0.3-0.3,0.5-0.5,0.8-0.8
				c-18.6-1.4-37.3-1.2-55.9,0.5c-18.5,1.7-36.9,5-54.9,9.8c-10.3,2.7-20.4,5.9-30.4,9.6c0.3,0.3,0.6,0.6,0.9,0.9
				c4.5-28.4,5.5-57.2,5.1-85.9c-0.5-29-2.3-58-3.9-87c-0.9-16.4-1.7-32.8-2.6-49.2C66.7,23.4,65.2,23.4,65.2,24.4L65.2,24.4z"/>
		</g>
	</g>
	<g>
		<path class="st2" d="M61.7,25.8c1.3,25.2,2.7,50.3,4,75.5c2.6,48.8,5.2,98.1-2.5,146.3c45-16.7,93.4-23.5,141-19.9
			c-5-70.7-10-141.5-15-212.2c-8.5,2.1-17.1,4.2-25.6,6.4c-35,8.7-73.2,17.2-105.9,1.3"/>
		<g>
			<path class="st3" d="M60.9,25.8c1.5,29.1,3.1,58.1,4.6,87.2c1.5,28.7,2.7,57.4,1.5,86.1c-0.7,16.2-2.1,32.3-4.6,48.3
				c-0.1,0.5,0.3,1.1,0.9,0.9c17.5-6.5,35.5-11.5,53.9-15c18.3-3.5,36.8-5.4,55.5-5.8c10.5-0.2,21,0.1,31.5,0.9
				c0.4,0,0.8-0.4,0.8-0.8c-1.9-27.6-3.9-55.1-5.8-82.7c-2-27.7-3.9-55.3-5.9-83c-1.1-15.5-2.2-31.1-3.3-46.6c0-0.5-0.5-0.8-0.9-0.7
				c-17.5,4.4-35,9.1-52.7,12.6c-16.7,3.2-33.9,5.2-50.8,3.1c-9.5-1.2-18.8-3.8-27.4-7.9c-0.9-0.4-1.6,0.9-0.8,1.3
				c15.3,7.4,32.3,9.6,49.2,8.9c17.4-0.8,34.5-4.5,51.3-8.6c10.5-2.6,21-5.2,31.5-7.8c-0.3-0.2-0.6-0.5-0.9-0.7
				c1.9,27.6,3.9,55.1,5.8,82.7c2,27.7,3.9,55.3,5.9,83c1.1,15.5,2.2,31.1,3.3,46.6c0.3-0.3,0.5-0.5,0.8-0.8
				c-18.6-1.4-37.3-1.2-55.9,0.5c-18.5,1.7-36.9,5-54.9,9.8c-10.3,2.7-20.4,5.9-30.4,9.6c0.3,0.3,0.6,0.6,0.9,0.9
				c4.5-28.4,5.5-57.2,5.1-85.9c-0.5-29-2.3-58-3.9-87c-0.9-16.4-1.7-32.8-2.6-49.2C62.4,24.8,60.9,24.8,60.9,25.8L60.9,25.8z"/>
		</g>
	</g>
	<g>
		<path class="st0" d="M29,13.1c1.6,28.3,3.2,56.6,4.8,85c3.1,54.9,6.1,110.4-3,164.7c53.5-18.8,110.8-26.5,167.4-22.4
			c-5.9-79.6-11.9-159.2-17.8-238.9c-10.1,2.4-20.2,4.8-30.4,7.2C108.4,18.5,63.1,28,24.2,10.1"/>
		<g>
			<path class="st1" d="M27.5,13.1c1.8,32.9,3.7,65.8,5.5,98.8c1.8,32.2,3.2,64.4,1.7,96.6c-0.8,18-2.5,36.1-5.5,53.9
				c-0.2,1,0.7,2.3,1.8,1.8c20.8-7.3,42.2-12.9,63.9-16.8c21.7-3.9,43.8-6.1,65.9-6.5c12.4-0.2,24.8,0.1,37.2,1
				c0.8,0.1,1.6-0.7,1.5-1.5c-2.3-31.1-4.6-62.1-6.9-93.2S188,85.1,185.7,54c-1.3-17.5-2.6-35-3.9-52.6c-0.1-1-0.9-1.7-1.9-1.4
				c-20.9,4.9-41.7,10.3-62.8,14.2c-19.7,3.6-40,5.8-60.1,3.4c-11-1.3-21.9-4.1-32-8.8c-1.7-0.8-3.3,1.8-1.5,2.6
				c18.5,8.4,38.8,11,58.9,10c20.6-0.9,41-5.1,61-9.7c12.4-2.9,24.9-5.9,37.3-8.8c-0.6-0.5-1.3-1-1.9-1.4
				c2.3,31.1,4.6,62.1,6.9,93.2c2.3,31.1,4.6,62.1,6.9,93.2c1.3,17.5,2.6,35,3.9,52.6c0.5-0.5,1-1,1.5-1.5
				c-22.2-1.6-44.4-1.4-66.6,0.6c-22,2-43.9,5.7-65.3,11.1c-12.1,3.1-24.1,6.7-35.9,10.8c0.6,0.6,1.2,1.2,1.8,1.8
				c5.4-31.9,6.6-64.3,6-96.6c-0.6-32.6-2.8-65.2-4.6-97.7c-1-18.6-2.1-37.2-3.1-55.8C30.4,11.2,27.4,11.1,27.5,13.1L27.5,13.1z"/>
		</g>
	</g>
	<g>
		<g>
			<path d="M29.9,69.8c5.6,2.4,12,1.6,16.7-2.2c0.6-0.5,0.5-1.6,0-2.1c-0.6-0.6-1.5-0.5-2.1,0c-3.6,2.9-8.9,3.6-13.1,1.8
				c-0.7-0.3-1.6-0.2-2.1,0.5C29,68.4,29.2,69.5,29.9,69.8L29.9,69.8z"/>
		</g>
	</g>
	<g>
		<g>
			<path d="M30,101.9c5.6,2.4,12,1.6,16.7-2.2c0.6-0.5,0.5-1.6,0-2.1c-0.6-0.6-1.5-0.5-2.1,0c-3.6,2.9-8.9,3.6-13.1,1.8
				c-0.7-0.3-1.6-0.2-2.1,0.5C29,100.4,29.2,101.5,30,101.9L30,101.9z"/>
		</g>
	</g>
	<g>
		<g>
			<path d="M32,131.9c5.6,2.4,12,1.6,16.7-2.2c0.6-0.5,0.5-1.6,0-2.1c-0.6-0.6-1.5-0.5-2.1,0c-3.6,2.9-8.9,3.6-13.1,1.8
				c-0.7-0.3-1.6-0.2-2.1,0.5C31,130.4,31.2,131.5,32,131.9L32,131.9z"/>
		</g>
	</g>
	<g>
		<g>
			<path d="M33,159.9c5.6,2.4,12,1.6,16.7-2.2c0.6-0.5,0.5-1.6,0-2.1c-0.6-0.6-1.5-0.5-2.1,0c-3.6,2.9-8.9,3.6-13.1,1.8
				c-0.7-0.3-1.6-0.2-2.1,0.5C32,158.4,32.2,159.5,33,159.9L33,159.9z"/>
		</g>
	</g>
	<g>
		<g>
			<path d="M36,179.9c5.6,2.4,12,1.6,16.7-2.2c0.6-0.5,0.5-1.6,0-2.1c-0.6-0.6-1.5-0.5-2.1,0c-3.6,2.9-8.9,3.6-13.1,1.8
				c-0.7-0.3-1.6-0.2-2.1,0.5C35,178.4,35.2,179.5,36,179.9L36,179.9z"/>
		</g>
	</g>
	<g>
		<g>
			<path d="M33,205.9c5.6,2.4,12,1.6,16.7-2.2c0.6-0.5,0.5-1.6,0-2.1c-0.6-0.6-1.5-0.5-2.1,0c-3.6,2.9-8.9,3.6-13.1,1.8
				c-0.7-0.3-1.6-0.2-2.1,0.5C32,204.4,32.2,205.5,33,205.9L33,205.9z"/>
		</g>
	</g>
	<g>
		<g>
			<path d="M33,225.9c5.6,2.4,12,1.6,16.7-2.2c0.6-0.5,0.5-1.6,0-2.1c-0.6-0.6-1.5-0.5-2.1,0c-3.6,2.9-8.9,3.6-13.1,1.8
				c-0.7-0.3-1.6-0.2-2.1,0.5C32,224.4,32.2,225.5,33,225.9L33,225.9z"/>
		</g>
	</g>
	<g>
		<g>
			<path d="M32,250.9c5.6,2.4,12,1.6,16.7-2.2c0.6-0.5,0.5-1.6,0-2.1c-0.6-0.6-1.5-0.5-2.1,0c-3.6,2.9-8.9,3.6-13.1,1.8
				c-0.7-0.3-1.6-0.2-2.1,0.5C31,249.4,31.2,250.5,32,250.9L32,250.9z"/>
		</g>
	</g>
	<rect x="67.7" y="66.6" class="st4" width="103" height="43"/>
</g>
<rect x="-66.3" y="-50.4" class="st4" width="387" height="363"/>
<ellipse class="st5" cx="41.2" cy="66.6" rx="4" ry="4.5"/>
<ellipse class="st5" cx="45.2" cy="98.6" rx="4" ry="4.5"/>
<ellipse class="st5" cx="48.2" cy="130.6" rx="4" ry="4.5"/>
<ellipse class="st5" cx="49.2" cy="156.6" rx="4" ry="4.5"/>
<ellipse class="st5" cx="48.2" cy="202.6" rx="4" ry="4.5"/>
<ellipse class="st5" cx="48.2" cy="222.6" rx="4" ry="4.5"/>
<ellipse class="st5" cx="51.2" cy="176.6" rx="4" ry="4.5"/>
<ellipse class="st5" cx="49.2" cy="246.6" rx="4" ry="4.5"/>
</svg>
